<?xml version="1.0" encoding="UTF-8"?>
<svg width="220px" height="220px" viewBox="0 0 220 220" version="1.1" xmlns="http://www.w3.org/2000/svg" xmlns:xlink="http://www.w3.org/1999/xlink">
    <style type="text/css">
    .st0{fill-rule:evenodd;clip-rule:evenodd;fill:#FFFFFF;}
    .st1{fill-rule:evenodd;clip-rule:evenodd;fill:#1F36C7;}
</style>
    <title>logo sketch</title>
    <defs>
        <path d="M114.9,10.3 C117,10.3 118.4,11.5 118.5,13 C118.5,14.1 117.6,15 116.5,15 C114.1,15 114.7,13.2 113.7,13.2 C111.459574,13.2 109.701132,16.6427343 108.024729,20.3286574 L107.767414,20.8972097 L107.767414,20.8972097 L107.383161,21.7515695 C107.255319,22.0358533 107.12766,22.3191489 107,22.6 C106.1,24.4 105.7,24.7 105,24.7 C103.3,24.7 103,20.2 102.3,18.2 C100.9,21.2 98.1,24.7 93.7,24.7 C91.1,24.6 88.6,23.3 88.6,19.3 C88.6,14.8 91.6,11.6 94.6,11.6 C96.9,11.6 98.4,14 98.4,15.6 C98.3,20 92.4,20.1 92.4,21 C92.4,21.9 93.9,22.2 94.8,22.2 C98.6,22.2 101.1,17.3 102,13.9 C102.2,13.3 102.7,12.1 103.8,12.1 C105,12.1 104.4,19.5 106.1,19.5 C107.2,19.5 108.6,10.3 114.9,10.3 Z M55.7,0.2 C57.7,0.1 59.3,2 59.5,5 C59.9,13 57.2,16.2 55.8,19.1 C56.1,20.2 58,22.1 59.8,22.1 C60.5,22.1 61.3,21.8 61.5,21.5 C61.3,21 61.2,20.5 61.2,19.6 C61.2,15 64.3,11.2 66.9,11.2 C69,11.2 70.2,13.9 70.2,15.7 C70.2,17.8 68.4,19.5 65.7,21.1 C66.2,21.6 67.1,21.9 67.8,21.9 C71.6,22 73.7,17.4 75.2,13.3 C75.5,12.5 76,11.4 76.9,11.4 C78.5,11.4 79.1,21.8 81.8,21.8 C82.9,21.8 83.9,19.5 83.9,17.7 C84,16.3 83.5,16.2 83.5,14.3 C83.5,12.2 84.6,10.4 86.2,10.4 C87.2,10.4 87.5,11.3 87.5,12.4 C87.4,16.6 84.3,24.4 79.7,24.4 C76.3,24.4 76.6,18.6 75.4,18.6 C74.1,18.6 72.2,24.4 65.5,24.4 C64.4,24.4 63.2,23.9 62.3,22.8 C60.7,23.9 59.3,24.3 57.8,24.3 C55.3,24.3 54.2,21.8 53.2,21.8 C52,21.8 50.6,24.3 46.6,24.3 C43.4,24.3 42.8,20.1 41.7,20.1 C40.7,20.1 39.1,24.3 37.4,24.3 C36.0341463,24.3 35.1917906,22.5629387 34.3970256,20.7835101 L34.1595479,20.2501052 C33.4090422,18.5676978 32.6585366,17 31.5,17 C30.5913043,17 28.6990548,18.6926276 26.7859209,20.4369689 L26.2643626,20.9127476 C24.3553875,22.6529301 22.5130435,24.2956522 21.7,24.2 C21,24.1 20.7,23.7 20.8,23 C20.9,22.1 21.8,19.6 22.1,18.5 C22.7,16.5 23.2,14.3 23.5,13.6 C23.7,12.9 24.5,12.4 25.1,12.5 C25.4,12.5 25.5,13 25.6,13.5 C25.9,15.1 26.4,16.8 26.9,16.8 C27.8,16.8 31,11 32.8,11 C35.1,11 35.3,20.2 38.3,20.2 C39.3,20.2 40,19 40.7,17.6 C40.8,15.2 41.5,11.7 43.5,11.7 C44.9,11.7 45.5,14.8 44.5,17.5 C44.4,20.7 46.6,21.5 48,21.5 C49,21.5 50.7,21.2 52.1,19.1 C51.3,17.4 50.8,13.9 50.7,12.7 C50.4,6.3 52.9,0.3 55.7,0.2 Z M17.2,2.2 C18.4,1.8 18.9,2.4 19.4,3.8 C20,5.9 20,8.7 19.8,12.6 C19.5,18 16.7,24.5 9.8,24.3 C3.8,24.2 1.2,20.4 1,14.7 C0.9,12 1.1,9.3 2.3,5.5 C3,3.5 3.5,2.8 5.4,2.4 C6.9,2.1 6.7,3.6 6.4,5.4 C5.6,9.3 5.3,11.2 5.5,15.7 C5.8,20.4 8,22.3 10.4,22.3 C14.1,22.4 15.7,19.5 16.4,15.2 C16.9,11.8 16.5,10.2 16.2,9.1 C16,8.5 15.4,7.2 15.3,6.2 C14.9,4 16.1,2.5 17.2,2.2 Z M65.9,14.3 C65.3,14.2 63.9,14.9 63.9,17 C63.9,18.7 64.5,19.5 64.8,19.8 C66.8,19.2 67.3,17.6 67.2,16.3 C67.2,15.2 66.6,14.3 65.9,14.3 Z M93.7,14.2 C91.1,14.2 91.3,18.3 91.7,19.2 C93.6,18.9 94.9,17.8 95.2,16.8 C95.5,15.8 95.1,14.2 93.7,14.2 Z M55.9224031,4.0927011 L55.8,4.1 C54.5,4.2 53.9,8.3 54.1,12.6 C54.3,15.4 54.7,15.8 55.1,15.8 C55.8,15.8 57.6,10.7 57.4,6.7 C57.3,4.9 56.8,4 55.8,4.1 Z M44.3,1 C45.5,1 46.3,1.7 46.4,2.8 C46.6,4.3 45.5,5.9 44,5.9 C42.7,5.9 42.1,5 41.9,3.9 C41.8,2.3 43,1 44.3,1 Z" id="path-1"></path>
    </defs>
    <g id="logo-sketch" stroke="none" stroke-width="1" fill="none" fill-rule="evenodd">
        <rect id="background" fill="#FFFFFF" x="0" y="0" width="220" height="220"></rect>
        <g id="text" transform="translate(49.000000, 150.000000)">
            <mask id="mask-2" fill="white">
                <use xlink:href="#path-1"></use>
            </mask>
            <use id="Mask" fill="#1F36C7" xlink:href="#path-1"></use>
        </g>

       
<path id="fish" class="st1" d="M118.7,129.2c-0.4-0.7-0.1-1.9-1.2-1.9c-0.7,0-0.8,0.6-0.9,1.1c-1.5-0.5-2.8-0.7-4-0.7
    c-0.8,0-1.5,0.1-2.2,0.3c-0.4-0.7-2.2-2.1-3.7-2.6c-0.6,3.3-3.5,5.8-7.8,6.2c-0.2,2.1-1.9,2.7-3.2,2.7c-0.9,0-2.4-0.3-2.5-0.7
    c-0.5-3.1-2.8-4.8-3.9-5.2c0,0.3,0.1,0.7,0.1,1c0,2.6-1.8,4.2-5.1,4.2c-0.5,0-1.2,0-1.7-0.1c3.8,4.2,6.5,2.7,8.2,3.5
    c2.3,1,4.2,4.3,11.6,4.3c2.7,0,5.4-1.1,7.2-2.2c0.3,1.1,1.4,2.1,3.3,2.1c3.1,0,4.9-1,4.9-1.8c0-0.2,0-0.5-0.6-0.5
    c-0.5,0-0.5,0.1-2.2,0.1c-2,0-5.2-0.8-6.7-4.3c-0.3-0.6-0.7-0.6-0.8-0.6c-1,0-2.6,3.6-8.9,3.6c-2.7,0-3.9-1-3.9-1.2
    c0,0,0-0.1,0.1-0.1c0.3,0,1.2,0.1,2.4,0.1c4,0,7.2-1.9,9.2-4c0.7-0.8,1-0.9,1.6-0.9c0.5,0,1,0.4,1.3,1.1c0.9,2.3,3,4.2,5.2,4.2
    c3,0,3.1-5.2,3.8-5.5c0.1,0,0.3,0.1,0.4,0.1c0.4,0,0.9-0.3,0.9-0.9C119.7,129.8,118.8,129.6,118.7,129.2z M113.7,133.1
    c-0.8,0-1.4-0.6-1.4-1.4c0-0.8,0.6-1.5,1.4-1.5c0.8,0,1.4,0.7,1.4,1.4C115.2,132.5,114.5,133.1,113.7,133.1z">


</path>


<path id="chilli_pepper" class="st1" d="M103.3,119.2c0.7,0,1,0.6,1.1,1.2c0.2-0.2,0.5-0.3,0.8-0.3c0.7,0,1.1,0.5,1.1,1.1
    c0,0.4-0.2,0.7-0.5,0.9c0.4,0.2,0.7,0.5,0.7,0.9c0,0.5-0.4,0.9-1,0.9c-0.5,0-0.9-0.6-1.4-0.6c-0.3,0-0.7,0.1-0.8,0.3
    c0.2,0.5,0.3,0.9,0.3,1.4c0,2.6-3.5,4.7-7.2,4.7c-3.6,0-5-2.1-5-3c0-0.2,0.1-0.3,0.4-0.3c0.6,0,0.7,0.2,2.4,0.2c3.9,0,2.5-5,6.2-5
    c0.5,0,1.6,0.3,2,1c0.3-0.3,0.4-0.7,0.4-1c0-0.6-0.4-1-0.4-1.5C102.4,119.6,102.8,119.3,103.3,119.2z">

</path>


<path id="swirl" class="st1" d="M80.1,116.6c4.4,0,7.8,3.7,7.8,9c0,2.4-1.3,5.9-6.6,5.9c-6.3,0-10.1-5.3-10.1-8.7
    c0-2.9,1.9-4.7,3.1-5C73,123,75.9,128,81.7,128c2.9,0,4.3-1.4,4.3-3.9c0-2.8-1.9-5.5-5.2-5.5c-1.6,0-2.8,0.9-2.8,2.2
    c0,2.1,1.8,3.4,3.7,3.4c1.2,0,2-0.5,2-1.3c0-0.1,0-0.3-0.1-0.4c-0.1,0.1-0.4,0.1-0.8,0.1c-1.5,0-2.7-0.8-2.7-1.7
    c0-0.7,0.5-1.1,1.1-1.1c2.2,0,3.7,2.2,3.7,3.8c0,1.6-1.2,3-3.2,3c-4.3,0-6.2-3.5-6.2-5.8C75.6,118.3,77.7,116.6,80.1,116.6z">



</path>


<g id="packaging" class="st1">
    <path d="M132.8,128.4c-0.9,0.7-3.1,2.3-6.8,2.3c-2,0-2.8-0.6-3.1-0.6c-0.4,0-0.8,0.4-1.2,0.8c-0.9,1-2,2.8-2,4.9
        c0,1.4,1.1,2.8,3.2,2.8c6.8,0,11.8-4.2,11.8-7.5C134.8,129.2,133.6,128.4,132.8,128.4z M129.3,134.9l-3.9,1.1
        c0.3-0.8,0.5-1.7,0.5-2.6c0-0.3,0-0.5-0.1-0.8l0.5,0c2.9,0,4.1-1.1,4.3-1.1c0.2,0,0.4,0.1,0.4,0.7C131,133,130.6,134.1,129.3,134.9
        z"/>
    <path d="M127,129.2c1.6,0,3-0.4,3.9-1.2c0.3-0.2,0.4-0.6,0.4-1l0-0.8c0-1-1.6-1.6-3.8-1.6c-2.6,0-4,1.2-4,1.7l0,1.6
        C123.5,128.5,125,129.2,127,129.2z"/>


</g>


<path id="clothes" class="st1" d="M139.2,112.2c-5.3,0-3.9,4.5-10.1,5.9c-1.1,0.2-1.5,0.6-1.5,1.1c0,0.9,0.5,2.1,1.2,2.1
    c2.7,0,6.8-5.5,7.6-5.5c0.3,0,0.6,0,0.6,0.8c0,2-5.8,4.6-5.8,6c0,0.8,2,2.6,4.1,2.6c2.9,0,5.5-5.8,6.1-5.8c0.5,0,0.6,0.3,0.6,0.7
    c0,1.6-2,4.7-5.4,6c-0.7,0.3-0.8,0.6-0.8,0.8c0,0.8,0.9,1.9,1.7,1.9c1,0,7.7-5.8,7.7-10.4C145.4,114.1,142.1,112.2,139.2,112.2z
     M141.6,117.2c-0.4,0-0.8-0.1-1-0.3c-0.5-0.2-1.3-0.9-1.3-1.9c0-1,0.5-1.3,1-1.3c1.5,0,3.2,1.3,3.2,2.4
    C143.5,117,142.7,117.2,141.6,117.2z">


</path>

<path id="spoon" class="st1" d="M91.6,119.6c-0.2,0-0.6,0-0.9,0c-0.3,0-0.8-0.1-1.1-0.3c-0.6-0.5-0.8-3.2-1.8-4.8
    c-1.2-1.8-2.5-2.3-4.2-2.3c-1.2,0-2.6,0.7-2.6,1.7c0,0.6,0.3,1,2.6,1.6c2.9,0.7,4.3,2.3,4.6,4.1c0.3,1.8,0.6,3.2,1.3,3.9
    c0.9,1,2.6,1.9,4.2,1.9c1.3,0,2.3-0.4,2.3-1.6C95.9,122.5,94.1,119.6,91.6,119.6z M93.5,123.5c-1.1,0-2.7-1.1-2.7-1.8
    c0-0.5,0.5-0.8,0.9-0.8c0.9,0,2.5,1.1,2.5,2C94.2,123.2,94,123.5,93.5,123.5z">



</path>


<g id="wave" class="st1">
    <path d="M113.4,115.9c-0.7,0-0.7,1.1-0.7,1.5c0,0.4,0,0.5-0.3,0.5c-0.3,0-0.5-0.1-0.8-0.1c-0.2,0-0.4,0.2-0.4,0.5
        c0,1.5,1.9,2.7,3.8,2.7c2.5,0,3.7-1.1,4.4-1.1c0.3,0,0.4,0.3,0.4,0.5c0,0.4-0.4,0.9-0.4,1.1c0,0.6,1.2,0.1,1.2,0.8
        c0,0.9-1.5,1.6-3.8,1.6c-4.5,0-7.4-3.1-7.4-6c0-5.4,5.8-3.7,5.8-5.8c0-0.7-0.7-1.1-1.2-1.1c0.6-0.8,1.4-0.9,2.2-0.9
        c0.6,0,1.2,0.1,1.7,0.1c0.7,0,1.4-0.3,1.4-1.1c0-0.5-0.4-1.1-2.1-1.3c0.2-1.1,2.5-0.5,2.5-1.5c0-0.7-1.3-1.2-2.9-1.2
        c-6.2,0-10.6,5.1-10.6,10.6c0,5,3.6,10.5,10.3,10.5c6.5,0,9.6-5.3,9.6-9.3c-1.2,1.1-4.4,1.4-6,1.4
        C115.4,118.4,114.1,115.9,113.4,115.9z"/>
    <path d="M118.5,116.6c1,0,1.7-0.8,1.7-1.7c0-1.4-1.4-2.7-3.5-2.7c0.4,0.4,0.5,0.7,0.5,1.1c0,0.5-0.3,1.1-0.3,1.7
        C116.9,115.9,117.5,116.6,118.5,116.6z"/>
    <path d="M128.6,109.8c0.3,0.4,0.4,0.8,0.4,1.2c0,1-0.7,2-0.7,3c0,1.2,0.9,2.2,2.3,2.2c1.5,0,2.5-1.2,2.5-2.6
        C133,111.6,131.3,110,128.6,109.8z"/>
    <path d="M121.4,106c0.5,0.6,0.7,1.2,0.7,1.9c0,1.6-1.2,3.2-1.2,4.7c0,2,1.3,3.3,3.2,3.3c2,0,3.2-1.7,3.2-3.6
        C127.3,109.6,125.2,106.7,121.4,106z M124.2,111.7c-0.5,0-0.9-0.4-0.9-0.9c0-0.3,0.2-0.7,0.2-1.1c0.1-0.5,0-0.9,0.3-0.9
        c0.6,0,1.3,1.1,1.3,1.8C125.1,111.2,124.8,111.7,124.2,111.7z"/>

</g>


<g id="bowl" class="st1">
    <path d="M101.1,107.4c-1.6-0.6-2.3-1.5-2.7-3.4c-0.8,1.1-1.2,2.1-1.2,2.7c0,2.4,3.3,2.4,3.3,4c0,0.9-1.7,1.9-3.9,1.9
        c-2.5,0-4.3-0.4-5.9-2c-0.4-0.4-0.6-0.8-1.1-0.8c-0.6,0-0.9,1-0.9,2c0,3.4,3.3,7.5,7.9,7.5c5.7,0,8-3.9,8-7.1
        C104.7,110.3,104.3,108.6,101.1,107.4z M99.5,117c-0.5,0-0.6-0.2-0.6-0.7c0-0.3,0.1-0.9,0.1-1.4c0-1.2,0.5-1.1,1.7-1.7
        c0.9-0.4,1.2-0.9,1.5-0.9c0.3,0,0.6,0.2,0.6,0.7C102.8,114.8,100.8,117,99.5,117z"/>
    <path d="M93.8,101.6c-0.6,0-1.6-0.6-2.6-1.4c-1.1,1.1-1.9,2.6-1.9,4.3c0,3.5,3.7,6.4,7.3,6.4c0.6,0,1.2-0.1,1.8-0.2
        c-2-0.2-3.2-1.7-3.2-3.5c0-2.3,2.6-4.4,2.6-6.2c0-2.2-2.7-2.4-2.7-4.2c0-1.5,2.6-2.6,2.5-5c0-1.4-1.4-3.1-3.3-4.1
        c0.3,0.6,0.5,1.4,0.5,1.9c0,2.8-5.4,4-5.4,6.2c0,2.8,5.2,3.9,5.2,5.2C94.6,101.3,94.4,101.6,93.8,101.6z"/>
</g>


<path id="heart" class="st1" d="M148.3,103.4c1.8,0,3.2,2.3,3.2,5c0,2.9-1.4,6-3.8,8.2c0-4.8-5.9-3.3-5.9-6.8c0-1.5,1.1-2.5,2.4-2.5
    c1.1,0,2,0.3,2.7,1c-0.6-0.6-1-1.5-1-2.3C145.9,104.7,146.7,103.4,148.3,103.4z">
</path>


<path id="flower" class="st1" d="M77.5,108.3c-0.5,0.1-0.9,0.2-1.2,0.5c-0.3-1.1-1.3-2.1-2.7-1.8c-1.2,0.2-2.1,1.3-1.9,2.7
    c0,0.2,0.1,0.5,0.2,0.7c0,0-0.2,0-0.4,0.1c-1,0.2-2.2,1.2-2,2.7c0.2,1.3,1.3,2.2,2.6,2.1c0.5-0.1,0.9-0.2,1.2-0.4
    c0.3,1.2,1.3,1.9,2.6,1.8c1.3-0.2,2.2-1.3,2.1-2.6c0-0.4-0.1-0.6-0.2-0.8c0,0,0.2,0,0.3,0c1.3-0.3,2.2-1.3,2.1-2.6
    C79.8,109.1,78.7,108.1,77.5,108.3z M74.9,113.2c-0.8,0.1-1.4-0.5-1.5-1.2c-0.1-0.8,0.4-1.5,1.2-1.6c0.8-0.1,1.4,0.5,1.5,1.2
    C76.2,112.4,75.7,113.1,74.9,113.2z">
</path>


<g id="transformation" class="st1">
    <path d="M142.3,102.3c0-0.5,1.2-1.7,1.2-2.1c0-0.1-0.1-0.2-0.2-0.2c-0.5,0-2.2,1.3-4.7,1.3c-1,0-1.7-0.1-1.7-0.9
        c0-0.7,0.6-1.3,1.6-1.7c1.1-0.5,3.3-0.5,3.3-1c0-0.4-2.1-0.4-2.1-0.8c0-0.5,0.8-1.7,0.8-2.2c0,0,0-0.2-0.1-0.2
        c-0.4,0-1.4,1.2-2,1.2c-0.6,0-1.1-1.5-1.6-1.5c-0.1,0-0.3,0.1-0.3,0.4c0,0.6,0.3,1.7,0.3,3.2c0,1.3-0.7,2.4-1.4,2.4
        c-0.9,0-1.2-1.1-1.2-2c0-1.3,0.7-2.8,0.7-4.2c0-0.3-0.1-0.4-0.3-0.4c-0.5,0-1.3,1.5-1.9,1.5c-0.4,0-1.1-1.8-1.7-1.8
        c-0.1,0-0.2,0.3-0.2,0.7c0,0.5,0.1,1.2,0.1,1.5c0,0.4-0.5,0.5-1.1,0.5c-0.4,0-1.2,0-1.2,0.3c0,0.3,0.8,0.6,1.5,1.1
        c1.3,0.9,3.4,1.8,3.4,3.9c0,1.9-2.7,3.2-4.6,3.6c-0.9,0.1-1.8,0.3-1.8,0.6c0,0.4,2.4,0.5,2.4,1c0,0.3-1.1,1.7-1.1,2.1
        c0,0.1,0.1,0.1,0.1,0.1c0.4,0,1.6-1,2.1-1c0.7,0,0.6,2.1,1.1,2.1c0.6,0,0.4-3.1,0.6-3.9c0.4-1.4,1.4-2.8,2.3-2.8
        c1.1,0,1.2,1.9,1.2,2.8c0,1.8-1.3,3.7-1.3,4.6c0,0.1,0.1,0.2,0.2,0.2c0.4,0,1.3-1.2,1.8-1.2c0.5,0,1.6,2,2,2c0.2,0,0.3-0.2,0.3-0.4
        c0-0.6-0.3-1.6-0.3-2.2c0-0.7,2.3-0.3,2.3-0.8c0-0.2-1-0.6-1.6-1c-1.3-0.8-2.8-2.5-2.8-3.9c0-0.5,0.3-0.9,0.7-0.9
        c2.8,0,4,4.3,4.5,4.3c0.5,0,0.2-1.9,0.4-2.2c0.1-0.1,0.4-0.2,0.7-0.2c0.5,0,1.1,0.1,1.5,0.1c0.3,0,0.4,0,0.4-0.1
        C144.5,103.6,142.3,102.9,142.3,102.3z"/>
    <path d="M131.2,101.1c0-0.9-3.9-3.9-4.7-3.9c-0.2,0-0.3,0.1-0.3,0.3c0,0.3,0.1,0.7,0.1,1c0,0.7-0.3,0.8-1,0.8
        c-0.8,0-2.1-0.3-2.1-1.6c0-2.5,4.8-1.9,5.3-4.2c-2.1,0-3.1-1.4-4.5-1.4c-0.5,0-1.5,0.3-1.5,1.6c0,0.4,0.1,1.1,0.1,1.7
        c0,0.6-0.1,1-0.8,1c-0.6,0-0.7-0.7-0.7-1.5c0-0.7,0.1-1.5,0.1-2c0-3.7-4.1-2.2-4.5-5.2c-1,1.8-1.3,3.1-1.3,4.2
        c0,3.9,5.3,3.5,5.3,6.2c0,0.7-0.5,1.1-1,1.1c-0.9,0-1.5-1.9-2.9-1.9c-0.7,0-1.2,0.5-1.2,1.6c0,0.8,0.2,1.4,0.2,2.2
        c0,1.6-0.7,2.3-1.4,3c4.8-0.4,5.1-4,6.5-4c0.4,0,0.6,0.3,0.6,0.5c0,0.6-1,1.6-1,2.6c0,1.3,1.5,2,2.5,2c1.2,0,1.6-0.4,1.6-1.2
        c0-0.9-1.6-2.1-1.6-3.1c0-0.5,0.5-0.6,1.2-0.6c1.5,0,2,0.2,2,0.5c0,0.4-0.6,1.2-0.6,1.4c0,0.1,0.1,0.4,0.4,0.4
        C127.1,102.8,131.2,101.9,131.2,101.1z"/>
</g>



<path id="hair" class="st1" d="M80.7,87.6c-0.7,1.3-0.9,3-0.9,4c0,6.1,7.3,11.8,7.3,15.6c0,1.5-1.1,3.3-3.1,3.3
    c-1.8,0-2.8-1.4-2.8-2.6c0-0.9,0.6-1.7,0.9-1.7c0.1,0,0.1,0.1,0.1,0.3c0,0.5,0.4,1.2,1.2,1.1c0.8,0,1.2-0.5,1.2-1.2
    c0-3-6-8.2-6-15.3c-0.3,0.8-0.7,1.8-0.7,3.3c0,3.4,2.5,7,2.5,10.3c0,1.3-1,2.5-2.3,2.5c-1.5,0-2-1.2-2-1.9c0-0.5,0.2-1,0.4-1
    c0.2,0,0.1,0.8,0.9,0.8c0.9,0,1.2-0.6,1.2-1.7c0-3-1.7-5.1-1.7-8.2c0-0.5,0-1,0.1-1.4c-0.9,1.1-1,2.7-1,4.1l0,0l0,3.7
    c0,2.5-1.2,3.6-2.7,3.6c-1,0-1.9-0.8-1.9-2.1c0-0.2,0.1-0.8,0.3-0.8c0.3,0,0.5,0.8,1.3,0.8c1.6,0,1.7-1.5,1.7-4.6
    C74.5,94.7,75.9,90.6,80.7,87.6z">
</path>


<path id="hand" class="st1" d="M70.8,85.8c0.5,0,0.7,0.5,0.7,0.9c0,1.7-2.2,6.7-2.2,8.1c0,0.2,0.1,0.4,0.3,0.4
    c0.9,0,2.7-3.9,3.3-5.8c0.3-1,0.8-1.5,1.2-1.5c0.4,0,0.7,0.4,0.7,1.2c0,1.9-1.8,6.5-3.4,9.5c-1.2,2.4-3.2,5.8-3.2,7.7
    c0,1,0.2,2,1.6,3.2c-2.3-0.1-3.3-0.4-4.2-2.1c-3.9,7.6,7.2,6.9,3.4,13.7c-0.7-1.2-6.2-2.5-6.2-9.6c0-6.1,5.5-9.7,5.5-12.3
    c0-0.5-0.2-0.9-0.7-1.3c-1.2-1-1.2-1.8-2.2-1.8c-0.7,0-1.5,1.6-0.7,3c0.3,0.5,0.5,0.8,0.5,1.2c0,1-1.6,3.7-2.7,3.7
    c-1.1,0-2-2.8-2-7.2c0-3.9,0.9-7.9,2-7.9c0.3,0,0.4,0.2,0.4,0.5c0,0.5-0.1,1.4-0.1,3c0,1.7,0.4,1.8,0.7,1.8c1.2,0,1-7.5,3-7.5
    c0.5,0,0.6,0.5,0.6,1c0,1.7-0.8,4.2-0.8,5.5c0,0.7,0.2,0.9,0.5,0.9C67.8,94,69.3,85.8,70.8,85.8z">
</path>


<path id="plant" class="st1" d="M152.1,95.6c-1.7,0-2.6,3-4.3,3.1c1-4.3,5.3-6.6,5.3-10.6c0-4.6-3.8-6.2-5.4-7.2
    c-2.6-3.8-4.5-6.8-8.8-6.8c-1.8,0-3,0.3-4.2,0.3c-2.4,0-3.2-0.9-3.3-0.9c0,0-0.1,0-0.1,0.2c0,3.4,1.8,11,9.4,11
    c4.1,0,5.8-1.6,6.8-1.6c1,0,4.3,1.1,4.3,5c0,2.1-1.7,4.3-2.3,4.3c-0.6,0-1.2-1-1.2-2c0-1.1,0.6-3.2,0.6-4.5c0-0.5-0.1-0.7-0.4-0.7
    c-0.6,0-3.7,2-3.7,4.4c0,2.1,3.1,3.4,4.3,4c-1.2,1.9-1.9,3.2-2.4,5c0-1.4-1.3-4.1-1.7-5.3c-1.9-5.4-2.6-6.4-6.7-6.9
    c0.6,2.2,7.6,7.4,7.6,12.7c0,0.3,0,0.8-0.1,1c-2.1-6.2-5.7-7.7-7-9.2c-2.1-2.4-0.9-4.7-4.3-6c0.2,0.3,0.3,0.7,0.3,1
    c0,1.2-0.6,2.6-0.6,3.6c0,3.8,4.3,2.6,6.9,4.7c2.5,2,3.9,5.3,4.9,9c1-1.6,1.6-3.6,3.3-3.6c1.1,0,1.5,1.4,1.5,2.5c0,0.2,0,0.4,0,0.5
    c1.7-1.5,2.6-3.9,2.6-5.5C153.3,96.3,152.9,95.6,152.1,95.6z M145.3,81.5c-0.4,0-1-0.2-1.5-0.2c-1.2,0-2.1,1.7-2.7,1.7
    c-0.2,0-0.3-0.2-0.3-0.4c0-0.7,1.2-1.5,1.2-2c0-0.3-0.5-0.4-0.7-0.4c-1.2,0-2.9,1.7-3.9,1.7c-0.2,0-0.4-0.1-0.4-0.3
    c0-0.5,1.3-1.1,1.3-1.6c0-0.5-0.5-0.5-0.9-0.5c-0.6,0-1.8,0.3-2.5,0.3c-0.4,0-0.7-0.1-0.7-0.4c0-0.7,2.3-0.3,2.3-1.1
    c0-0.4-0.7-1.2-0.7-1.6c0-0.2,0.2-0.3,0.4-0.3c0.8,0,1.7,2.3,2.6,2.3c0.4,0,0.5-0.3,0.5-0.8c0-0.5-0.1-0.7-0.1-1.1
    c0-0.4,0.2-0.5,0.3-0.5c0.6,0,1.1,3.2,2.8,3.2c0.7,0,0.2-2,0.9-2c0.4,0,0.5,0.6,0.5,0.9c0.2,2.1,2.1,2.2,2.1,3
    C145.7,81.3,145.6,81.5,145.3,81.5z">
</path>

<g id="particles" class="st1">
    <path d="M121.4,76.8c0.8,0,1.4,0.6,1.4,1.3c0,0.7-0.6,1.3-1.4,1.3c-0.7,0-1.4-0.6-1.4-1.3
    C120,77.4,120.7,76.8,121.4,76.8z"/>
    <path d="M130.6,89.4c-0.7,0-1.4,0.6-1.4,1.3c0,0.8,0.7,1.3,1.4,1.3c0.8,0,1.4-0.6,1.4-1.4
        C132,89.9,131.4,89.4,130.6,89.4z"/>
    <path d="M126,86.9c-1.4,0-2.5,1.1-2.5,2.4c0,1.3,1.1,2.4,2.5,2.4c1.4,0,2.5-1.1,2.5-2.4C128.5,88,127.4,86.9,126,86.9z
        "/>
    <path d="M121.6,85.8c-0.8,0-1.4,0.6-1.4,1.4c0,0.8,0.7,1.4,1.4,1.4c0.8,0,1.4-0.6,1.4-1.4
        C123,86.4,122.4,85.8,121.6,85.8z"/>
    <path d="M130.4,88c0.9,0,1.7-0.7,1.7-1.6c0-0.9-0.8-1.6-1.7-1.6c-0.9,0-1.7,0.7-1.7,1.6C128.7,87.2,129.5,88,130.4,88z
        "/>
    <path d="M117.4,82.9c-1.1,0-2.1,0.9-2.1,2c0,1.1,0.9,2,2.1,2c1.1,0,2.1-0.9,2.1-2C119.4,83.8,118.5,82.9,117.4,82.9z"
        />
    <path d="M124.9,84.4c0,0.8,0.6,1.4,1.4,1.4c0.8,0,1.4-0.6,1.4-1.4c0-0.8-0.6-1.4-1.4-1.4
        C125.5,83,124.9,83.7,124.9,84.4z"/>
    <path d="M122.1,84.8c1.2,0,2.2-0.9,2.2-2.1c0-1.2-1-2.1-2.2-2.1c-1.2,0-2.2,0.9-2.2,2.1
        C119.9,83.8,120.8,84.8,122.1,84.8z"/>
    <path d="M130.1,83.4c0.8,0,1.5-0.7,1.5-1.5c0-0.8-0.7-1.5-1.5-1.4c-0.8,0-1.5,0.7-1.5,1.5
        C128.6,82.8,129.3,83.4,130.1,83.4z"/>
    <path d="M118,81.4c0.8,0,1.4-0.6,1.4-1.4c0-0.8-0.6-1.4-1.4-1.4c-0.8,0-1.4,0.6-1.4,1.4
        C116.5,80.8,117.2,81.4,118,81.4z"/>
    <path d="M126.2,81.3c1.3,0,2.3-1,2.3-2.2c0-1.2-1-2.2-2.3-2.2c-1.3,0-2.3,1-2.3,2.2C123.9,80.3,124.9,81.3,126.2,81.3z
        "/>
    <path d="M127.9,76.1c0.8,0,1.4-0.6,1.4-1.3c0-0.7-0.6-1.3-1.4-1.3c-0.8,0-1.4,0.6-1.4,1.3
        C126.6,75.6,127.2,76.1,127.9,76.1z"/>
</g>

<path id="tree" class="st1" d="M87.5,77.9c0.9,0,2.5,1.5,2.9,3.1c-0.2,0-0.4-0.1-0.5-0.1c-1.2,0-1.8,1.1-2.7,3
    c2.1-1.4,4-2.5,6.2-2.5c1.9,0,3.4,1.1,3.4,2.8c0,0.7-0.4,1.5-0.8,2.3c-0.3-1.6-1.6-2.3-3.9-2.3c-1.3,0-2.9,0.2-4.2,0.7
    c4.1,0.6,4.7,2,4.7,3.3c0,2.2-2.3,3.3-3.8,4c0.1-0.6,0.3-1.3,0.3-2c0-1.3-0.5-2.9-2.6-4.3c-0.3,1.4-1.5,2.3-1.5,3.4
    c0,0.4,0.3,0.6,0.5,0.6c0,0.6-0.3,2.4-0.3,2.9c0,0.9,0.2,1.1,0.7,1.2c0.3,0.8,0.3,2.2,0.5,2.9c0.1,0.4,0.4,0.5,0.7,0.5
    c0.3,0.7,0.7,1.8,1.3,2.2c0.1,0.1,0.3,0.4,0.3,0.6c0,0.6-1,1.3-1.6,1.3c-0.2,0-0.5-0.1-0.8-0.8c-0.2-0.5-2-1.6-2.1-2.2
    c0.1-0.1,0.2-0.3,0.2-0.6c0-1-1.6-2.1-1.6-3.7c0.2-0.1,0.4-0.4,0.4-0.7c0-0.9-0.9-2.6-0.9-3.8c0.4,0,0.6,0,0.6-0.6
    c0.1-1.2,0.3-2.9,1.4-3.9c-0.3,0-0.6-0.1-1-0.1c-2.2,0-5.5,1.2-6.8,4c-0.1-0.4-0.1-0.8-0.1-1.2c0-2.3,1.4-3.8,2.5-4.3
    c0.5-0.2,1.2-0.3,1.9-0.3c1.2,0,2.5,0.2,3.9,0.5c-1.2-1.6-3.1-2.7-4.7-2.7c-0.7,0-1.3,0.2-1.5,0.8c-0.1-0.3-0.1-0.8-0.1-1.2
    c0-1.7,0.6-2.7,2.1-2.7c2.2,0,4.2,2.6,5.3,5l0,0l0-0.3c0-3.4,0.1-5.1,1.5-5.2L87.5,77.9z">
</path>

<g id="bee" class="st1">
    <path d="M59.7,83.6c0,2.7,0.9,4,2.4,4c1.2,0,2.8-0.8,4.7-2.4c-1.5,0.3-2.6,0.5-3.6,0.5C61.9,85.7,60.8,85.2,59.7,83.6z
        "/>
    <path d="M70.1,79.9c-0.9,0.2-2.6,1.2-2.6,3c0,1.3,1,2.1,2.3,2.1c0.7,0,1.2-0.1,1.5-0.4c-1-1-1.4-2-1.4-3.1
        C69.9,80.8,70,80.3,70.1,79.9z"/>
    <path d="M73.2,77c-0.8,0.9-1.7,2.5-1.7,4.1c0,1.9,1.2,3.5,3.1,3.5c1.8,0,2.7-1.5,2.7-3C77.4,79.2,75.1,77.5,73.2,77z"
        />
    <path d="M61,80.4c0,0.2,0,0.4,0,0.5c0,1.7,0.9,2.6,2.2,2.6c0.9,0,2-0.5,3-1.7c-0.4,0.1-0.9,0.1-1.3,0.1
        C63.4,82,61.9,81.6,61,80.4z"/>
    <path d="M68.4,71.2c-1.2,0-2.7,0.1-4.3,1.1c-3.2,2-2.8,5.2-3.3,6.1c-0.1,0.1-0.1,0.2-0.1,0.4c0,0.3,0.4,0.7,0.7,0.7
        c0.3,0,0.5-0.1,0.6-0.1c0.9,0,1.9,0.6,3.4,0.6c0.9,0,1.9-0.3,3.1-0.9c2.7-1.3,3.7-4.5,3.7-5c0-0.7-0.6-0.6-1-1.2
        c-0.5-0.6-0.3-1.2-0.6-1.5c-0.2-0.2-0.7-0.2-1.4-0.2C69,71.2,68.7,71.2,68.4,71.2z M66.2,78.3c-1.2,0-2.6-1.5-2.6-2.8
        c0-0.7,0.6-1.6,1-1.6c0.1,0,0.2,0.1,0.3,0.4c0.2,1.7,1.4,2.7,2.5,3.2c0.1,0.1,0.2,0.1,0.2,0.2C67.5,78,66.8,78.3,66.2,78.3z
         M70.6,75c0,0.5-0.3,1.1-0.9,1.1c-1.3,0-2.3-1.9-2.4-3c0-0.7,0.4-0.7,1-0.7c0.3,0,0.4,0,0.6,0.1c0.3,0.2,0.3,0.9,0.7,1.4
        C69.9,74.3,70.6,74.7,70.6,75z"/>
    <path d="M73.4,73.4c0,0.8,0.7,1.4,1.5,1.4c0.8,0,1.5-0.6,1.5-1.4c0-0.8-0.7-1.4-1.5-1.4C74.1,71.9,73.4,72.6,73.4,73.4
        z"/>
    <path d="M72.9,71.6c0.8,0,1.5-0.6,1.5-1.4c0-0.8-0.7-1.4-1.5-1.4c-0.8,0-1.5,0.6-1.5,1.4
        C71.5,70.9,72.1,71.6,72.9,71.6z"/>
    <path d="M62.8,70.9c1.3,0,2.4-0.8,2.4-0.8c-2.2-0.6-3.4-2.1-3.4-4.2c0-0.2,0-0.4,0-0.6c-1.4,0.6-2,1.7-2,2.8
        C59.9,69.8,61.2,70.9,62.8,70.9z"/>
    <path d="M69.3,69.3c0.2-0.6,0.3-1.3,0.3-2.1c0-1.7-0.8-4.3-3.4-4.3c-1.5,0-2.5,1.1-2.5,2.4
        C63.8,68.2,66.8,69.3,69.3,69.3z"/>
</g>

<g id="ice_cream" class="st1">
    <path d="M151.5,68.4c-1.6,3.2-5.6,3.9-6.9,3.7c0.4,3.3,5.3,7.7,6.6,7.6c0.9-0.1,1.2-4.3,1.2-7.6
        C152.4,70.2,152.5,68.7,151.5,68.4z"/>
    <path d="M151.6,65.3c0-1.2-0.5-2.1-1.9-2.3c0.2,0.3,0.3,0.6,0.3,1.1c0,1.9-2.8,4-5.9,4c-1.1,0-1.5,0.8-1.4,1.2
        c0,1,0.9,1.4,2.2,1.4C148.4,70.6,151.6,67.8,151.6,65.3z"/>
    <path d="M144.1,66.8c1.4,0,4.4-1.2,4.4-2.8c0-0.5-0.2-1-1-1c-1.1,0-2.6,1.1-4.1,1.1c-0.5,0-1.1,0-1.7-0.2
        c0.6,0.4,0.5,1.4,0.8,2.1C143,66.8,143.6,66.8,144.1,66.8z"/>
</g>

<g id="cycle" class="st1">
    <path d="M125.3,67.6c0,3.2-2.2,4.5-4.2,4.5c-0.5,0-0.9-0.1-1.3-0.3c0.4-0.4,0.8-1,0.8-1.4c0-0.3-0.2-0.4-0.5-0.4
        c-0.2,0-0.7,0.1-1.1,0.1c-1,0-1.8-0.4-2.7-1.3c-0.6,0.9-0.9,2.1-0.9,3.3c0,1.9,0.7,3.8,1.5,3.9c0.4,0,0.4-1.3,1.1-1.3
        c0.2,0,1,0.6,2.7,0.6c2.5,0,5.3-1.5,5.3-5.4C125.9,69.4,125.7,68.2,125.3,67.6z"/>
    <path d="M119.6,65.6c0.5,0,1.5,0.2,1.8,0.7c-0.4,0.2-0.8,0.7-0.8,1.1c0,0.2,0.1,0.4,0.3,0.5c0.9,0.4,1.4,1.1,1.7,1.7
        c1.6-0.9,2.2-3.4,2.2-4.8c0-0.4,0-1-0.4-1c-0.3,0-0.6,0.4-1,0.4c-0.3,0-1.2-1.2-3.4-1.2c-2.5,0-3.6,1.9-3.6,3.5
        c0,0.4,0.1,0.9,0.2,1.2C117.1,66.7,118.1,65.6,119.6,65.6z"/>
</g>


<path id="DNA" class="st1" d="M94.3,67.7c-1.8,0-3.4,1.5-4.6,3.5c0.1-0.4,0.1-0.8,0.1-1.2c0-2.8-1.5-5.2-4.2-5.2
    c-2.2,0-4.3,1.3-5.1,3.9c0.2-0.2,1-0.7,1.6-0.7c0.7,0,0.9,0.6,0.9,1.6c0,0.6-0.1,1.4-0.4,2.1c-0.4,1.2-1.2,1.5-1.6,1.5
    c-1.7,0-0.9-2.9-1.8-2.9c-0.7,0-0.9,1.6-0.9,2.2c0,2,1.3,4.1,4.2,4.1c3.1,0,4.8-1.5,6.6-3.4c0.4,2.1,1.5,5.8,4.6,5.8
    c1.7,0,2.9-1.4,3-3.1c-0.2,0.2-0.5,0.4-0.9,0.4c-0.6,0-0.8-0.9-0.8-1.7c0-1.3,0.4-2.7,1-2.7c0.3,0,0.5,0.2,0.6,1.2
    c0.1,0.7,0,1.6,0.5,1.6c0.5,0,0.7-1.5,0.7-2.4C97.7,69.7,96.6,67.6,94.3,67.7z M84,74.5c-0.3,0-0.4-0.3-0.4-0.5
    c0-1.4,1.5-7.6,2.6-7.6c0.2,0,0.3,0.2,0.3,0.5C86.5,68,85.2,74.5,84,74.5z M88.6,71.8c-0.9,1-1.4,1.5-1.8,1.5
    c-0.2,0-0.4-0.4-0.4-0.8c0-0.7,0.5-3.6,1.6-3.6c0.4,0,0.7,0.8,0.7,1.5C88.7,71,88.7,71.4,88.6,71.8z M90.7,74.3
    c-0.3,0-0.6-0.6-0.6-1.8c0.6-1,0.9-1.4,1.3-1.4c0.1,0,0.3,0.1,0.3,0.7C91.6,73.1,91.1,74.3,90.7,74.3z M92.5,76.4
    c-0.2,0-0.4-0.3-0.4-1.1c0-1.9,1.2-5.4,1.9-5.4c0.2,0,0.3,0.5,0.3,1C94.4,73,93.4,76.4,92.5,76.4z">
</path>


<path id="lips" class="st1" d="M138.4,63.6c-0.7,0-1.8,0.8-2.6,0.8c-1.1,0-0.8-1.5-2-1.5c-0.3,0-0.6,0.1-0.9,0.3
    c-2.5,1.3-4.5,0.8-4.9,1.1c-0.1,0.1-0.2,0.1-0.2,0.4c0,2.8,2.8,7,7.4,7c3.2,0,5.8-1.1,5.8-3C140.9,67.1,139.4,63.6,138.4,63.6z
     M135.5,69c-2.6,0-4.2-1.5-4.2-2.4c0-0.1,0.1-0.2,0.2-0.2c0.4,0,1.5,0.6,3,0.8c1.7,0.3,2.6,0.3,3.1,0.3c0.5,0,0.7,0.1,0.7,0.3
    C138.2,68.3,137,69,135.5,69z">
</path>

<path id="dove" class="st1" d="M152.4,46.8c-1.8,0-2-0.5-3.2-0.5c-1.4,0-2.4,1-2.4,2.5c0,0.5,0.2,1.3,0.2,2.3c0,1.2-0.2,2.4-1.3,2.4
    c-1,0-1.4-0.7-1.4-1.5c0-1.4,0.7-2.4,0.7-3.3c0-1.7-2-2.2-4.2-2.2c-2.6,0-5.4,0.7-5.4,1.1c0,0.6,3.7,0.2,6.4,3.7c-1.7,0-5,0.8-5,1.3
    c0,0.6,6,1.2,6,3.7c0,1.6-1.3,1.8-1.8,1.8c-2,0-3-2.1-3.5-2.1c-0.1,0-0.3,0.1-0.3,0.3c0,0.3,0.3,1.2,0.3,2.1c0,2.3-2.5,2.5-2.5,3
    c0,0.2,0.1,0.2,0.4,0.3c1.8,0.3,3.7,0.4,5.4,0.4c6.4,0,11.5-2,11.5-7.6c0-3.1-1-4.1-1-5.6C151.1,48.4,151.5,47.3,152.4,46.8z
     M143.5,59c-0.4,0-0.8,0-1.3,0c4.1-0.7,6.4-3.1,6.4-6.3c0.9,0.3,1.5,1.2,1.5,2.2C150,56.8,148.3,59,143.5,59z M149.2,49.3
    c-0.5,0-0.9-0.4-0.9-0.9c0-0.5,0.4-0.9,0.9-0.9c0.5,0,0.9,0.4,0.9,0.9C150.1,48.9,149.7,49.3,149.2,49.3z">
</path>

<path id="spark" class="st1" d="M127.5,45.6c-2.4,0-4.2,1.2-5.2,1.2c-0.6,0-1.4-1.4-1.9-1.4c-0.2,0-0.4,0.4-0.4,1l0,0.2
    c0,0.5-0.1,1.4-0.4,1.4c-0.9,0-4.3-2.4-4.3-1.6c0,0.8,2.3,3.3,2.3,3.9c0,0.6-2.2,1.2-2.2,1.7c0,0.8,2.4,0.9,2.4,1.9
    c0,1-2.5,1.8-2.5,2.5c0,0.6,2.5,0.2,2.5,0.9c0,0.7-1.8,3.2-1.8,3.9c0,0.2,0,0.2,0.2,0.2c0.7,0,2.8-2.3,3.3-2.3
    c0.6,0,0.7,1.4,0.8,2.2c0.1,0.4,0.1,0.5,0.3,0.5c0.4,0,1.1-1.6,1.6-1.6c0.7,0,2.5,1.9,5.6,1.9c4.4,0,8.5-3,8.5-8.3
    C136.4,48.6,132.6,45.6,127.5,45.6z M121.4,57c-0.1,0-0.2-0.1-0.2-0.3l-0.1-1.4c0-0.1-0.1-0.3-0.3-0.3c-0.4,0-1.3,0-1.5,0
    c-0.2,0-0.3,0-0.3-0.1c0-0.3,1.5-1.3,1.5-1.5c0-0.4-1.4-1.1-1.4-1.6c0-0.1,0.1-0.1,0.2-0.1c0.4,0,1.1,0.1,1.6,0.1c0.5,0,0.5-2,0.9-2
    c0.3,0,0.7,1.9,1.1,1.9c0.5,0,1.3-0.5,1.7-0.5c0.1,0,0.1,0,0.1,0.1c0,0.2-0.9,1.2-0.9,1.5c0,0.3,2,0.7,2,1c0,0.4-2.1,0.3-2.1,0.6
    c0,0.2,0.8,1.2,0.8,1.6c0,0.1,0,0.1-0.1,0.1c-0.3,0-1.4-0.5-1.7-0.5C122.3,55.6,121.7,57,121.4,57z M127.6,60.1
    c-2.5,0-4.2-1.2-4.2-1.9c0-0.3,0.2-0.5,0.5-0.5c0.8,0,2.5,1.2,3.1,1.2c0.1,0,0.3-0.1,0.3-0.3c0-0.6-0.6-1.7-0.6-2.2
    c0-0.1,0.1-0.2,0.3-0.2c1,0,2.4,0.4,3.2,0.4c0.3,0,0.3-0.1,0.3-0.3c0-0.8-2.4-2.3-2.4-2.8c0-0.4,2.9-1.1,2.9-1.7c0-0.7-4-0.2-4-0.9
    c0-0.5,0.8-1.3,0.8-1.7c0-0.2-0.1-0.2-0.4-0.2c-0.3,0-2.1,0.7-2.8,0.7c-0.4,0-0.8-0.1-0.8-0.6c0-0.8,1.4-1.7,3.6-1.7
    c3.6,0,5.7,2.4,5.7,6.4C133.2,58.8,129.6,60.1,127.6,60.1z">
</path>


<g id="sun" class="st1">
    <path d="M89.6,55.8c1.4,0,5.6,1.9,7.5,1.9c0.7,0,1.1-0.4,1.1-0.8c0-2.2-5.9-6.1-6-7.7c0-0.2,0.1-0.3,0.2-0.4
        c1-1.1,5.2-1.8,5.2-2.7c0-0.5-0.9-0.5-1.3-0.5c-3.4,0-8.3,1.2-8.3,2.4c0,1.2,4.4,4.2,4.4,5.7c0,0.4-0.3,0.5-0.7,0.5
        c-1.2,0-3.9-1.5-5.2-1.5c-0.6,0-0.8,0.4-0.8,1c0,1.7,2.1,5,2.1,6c0,0.1,0,0.3-0.2,0.3c-0.7,0-3.7-3.6-4.8-3.6
        c-0.4,0-0.4,0.5-0.4,1.3l0,1.2c0,0.8,0,1.3-0.4,1.3c-0.9,0-1.4-2.6-2.3-2.6c-0.9,0-1.1,4.7-2,4.7c-1.1,0-0.2-5.1-1.2-5.1
        c-1.1,0-2.4,3.4-3.2,3.4c-0.3,0-0.4-0.3-0.4-0.5c0-1,0.6-2.7,0.6-3.7c0-0.5-0.1-0.8-0.6-0.8c-1.1,0-3.6,1.8-4.5,1.8
        c-0.1,0-0.3-0.1-0.3-0.2c0-0.9,4-3.6,4-4.8c0-1.2-5.5-0.4-5.5-1.8c0-1.1,3.9-2.3,3.9-3.5c0-1-4.6-1.5-6.4-1.5
        c-2.1,0-3.3,0.3-3.3,0.9c0,0.9,4.9,1.2,4.9,2c0,0.8-5.1,2.9-5.1,4.1c0,1.1,7.1,0.1,7.1,1.2c0,1.2-6.2,6.5-6.2,8.3
        c0,0.4,0.3,0.6,0.7,0.6c1.9,0,6.8-3.6,8.1-3.6c0.5,0,0.5,0.6,0.5,1.1c0,0.9-0.3,2.4-0.3,3.4c0,0.8,0.2,1.4,0.9,1.4
        c1.3,0,2.6-2.3,3.5-2.3c1.2,0,0.5,6.6,2.2,6.6c1.5,0,2.1-7.2,3-7.2c0.9,0,1.7,2.1,2.6,2.1c1.1,0,0.6-3.6,1.7-3.6
        c1.3,0,4.9,4.3,6.6,4.3c0.5,0,0.7-0.4,0.7-0.9c0-1.9-2.7-6.2-2.7-7.6C89.1,55.9,89.2,55.8,89.6,55.8z"/>
    <path d="M91.9,58.3c-0.1,0-0.2,0.1-0.2,0.2c0,1.3,4.6,7.4,5.4,7.4c0.7,0,1.3-1.3,1.3-2.3c0-0.3-0.1-0.6-0.2-0.8
        C97.5,61.8,92.9,58.3,91.9,58.3z"/>
    <path d="M65,54.8c0-0.3-0.6-0.4-1.1-0.4c-0.8,0-1.9,0.2-2.4,0.6c-0.4,0.3-0.7,1.3-0.7,2c0,0.4,0.1,0.8,0.5,0.8
        C62.2,57.9,65,55.5,65,54.8z"/>
    <path d="M71.5,50.3c0.8,0,2.1-0.4,3-0.4c0.5,0,1,0.1,1,0.6c0,0.9-2,2.5-2,3.2c0,0.2,0.2,0.3,0.4,0.3
        c0.7,0,2-1.8,3.1-1.8c1.9,0,0.7,4.1,1.7,4.1c1.1,0,0.6-4,2.2-4c1.3,0,2.2,2.8,3.1,2.8c0.2,0,0.4-0.2,0.4-0.4c0-0.8-1.1-2.3-1.1-3.3
        c0-0.6,0.4-0.9,1-0.9c0.8,0,2,0.5,2.6,0.5c0.2,0,0.4-0.1,0.4-0.3c0-0.9-3.2-1.8-3.2-2.9c0-1.1,1.8-1.1,1.8-1.6
        c0-0.2-1.1-0.4-2.6-0.4c-2.4,0-2,1.9-3.9,1.9c-1.9,0-1.4-2-3.8-2c-1.5,0-2.8,0.3-2.8,0.6c0,0.4,1.7,0.2,1.7,1.4
        c0,1.3-3.7,1.6-3.7,2.4C70.8,50.2,71.1,50.3,71.5,50.3z"/>
    <path d="M94.4,49.8c0,0.6,2.3,2,3.3,2c0.6,0,0.8-0.8,0.8-1.7c0-1.1-0.5-1.1-1.4-1.1C95.9,49,94.4,49.3,94.4,49.8z"/>
</g>
    </g>
</svg>